<svg xmlns="http://www.w3.org/2000/svg" xmlns:svg="http://www.w3.org/2000/svg" id="svg2" width="1000" height="1000" x="0" y="0" enable-background="new 0 0 1000 1000" version="1.1" viewBox="0 0 1000 1000" xml:space="preserve"><metadata id="metadata14"/><g id="g4" transform="matrix(2.2204171,0,0,2.2204171,-608.0899,-627.75326)" style="fill:#fff;fill-opacity:1"><g id="g6" style="fill:#fff;fill-opacity:1"><path id="path8" d="m 500,393 c -25.958,0 -47,21.042 -47,47 0,25.958 21.042,47 47,47 25.957,0 47,-21.042 47,-47 0,-25.958 -21.043,-47 -47,-47 z m 0,68 c -11.598,0 -21,-9.402 -21,-21 0,-11.598 9.402,-21 21,-21 11.598,0 21,9.402 21,21 0,11.598 -9.402,21 -21,21 z M 283,313 500,689 717,313 H 283 z m 217,195 c -57.604,0 -96,-68 -96,-68 0,0 38.396,-67 96,-67 57.605,0 96,67 96,67 0,0 -38.395,68 -96,68 z" clip-rule="evenodd" style="fill:#fff;fill-rule:evenodd;fill-opacity:1"/></g></g></svg>